<svg xmlns="http://www.w3.org/2000/svg" width="375.883" height="273.157" baseProfile="full" viewBox="0 0 320 233"><g stroke-linecap="square" stroke-miterlimit="10"><g fill="none" stroke="#00f" stroke-linecap="round" stroke-linejoin="round" stroke-opacity=".698" stroke-width="1.5" clip-path="url(#clip1)"><path d="M158 116.37c0-17.829-14.55-32.284-32.5-32.284S93 98.541 93 116.37"/></g><g fill="none" stroke="#00f" stroke-linecap="round" stroke-linejoin="round" stroke-opacity=".698" stroke-width="1.5" clip-path="url(#clip2)"><path d="M223 116.37c0-17.829-14.55-32.284-32.5-32.284S158 98.541 158 116.37"/></g><g fill="none" stroke="#00f" stroke-linecap="round" stroke-linejoin="round" stroke-opacity=".698" stroke-width="1.5" clip-path="url(#clip3)"><path d="M288 116.37c0-17.829-14.55-32.284-32.5-32.284S223 98.541 223 116.37"/></g><g fill="none" stroke="#000" stroke-dasharray="1.5000,3.0000" stroke-linecap="butt" stroke-linejoin="round" stroke-width="1.5" clip-path="url(#clip4)"><path d="M28 48v140"/></g><g fill="none" stroke="#00f" stroke-linecap="round" stroke-linejoin="round" stroke-width="2.5" clip-path="url(#clip5)"><path d="M28 48h65"/></g><g fill="none" stroke="#0c0" stroke-linecap="round" stroke-linejoin="round" stroke-width="2.5" clip-path="url(#clip6)"><path d="M28 188h216"/></g><g fill="none" stroke="#000" stroke-dasharray="1.5000,3.0000" stroke-linecap="butt" stroke-linejoin="round" stroke-opacity=".8" stroke-width="1.5" clip-path="url(#clip7)"><path d="M93 48v68.37"/></g><g fill="none" stroke="#00f" stroke-linecap="round" stroke-linejoin="round" clip-path="url(#clip8)"><path d="M244 188h83"/></g><g fill="none" stroke="#000" stroke-dasharray="1.5000,3.0000" stroke-linecap="butt" stroke-linejoin="round" stroke-width="1.5" clip-path="url(#clip9)"><path d="M288 116.37V188"/></g><g fill="none" stroke="red" stroke-linecap="round" stroke-linejoin="round" stroke-width="2.5" clip-path="url(#clip10)"><path d="M28 116.37h294"/></g><g fill="none" stroke="red" stroke-linecap="round" stroke-linejoin="round" stroke-width="2.5" clip-path="url(#clip11)"><path d="M244 188h44"/></g><g fill="none" stroke="#000" stroke-dasharray="1.5000,3.0000" stroke-linecap="butt" stroke-linejoin="round" stroke-width="1.5" clip-path="url(#clip12)"><path d="M223 116.37V188"/></g><g fill="#00f" clip-path="url(#clip13)"><path d="M32 48a4 4 0 1 1-8 0 4 4 0 0 1 8 0z"/></g><g fill="none" stroke="#000" stroke-linecap="round" stroke-linejoin="round" clip-path="url(#clip14)"><path d="M32 48a4 4 0 1 1-8 0 4 4 0 0 1 8 0z"/></g><g fill="#3f0" clip-path="url(#clip15)"><path d="M32 188a4 4 0 1 1-8 0 4 4 0 0 1 8 0z"/></g><g fill="none" stroke="#000" stroke-linecap="round" stroke-linejoin="round" clip-path="url(#clip16)"><path d="M32 188a4 4 0 1 1-8 0 4 4 0 0 1 8 0z"/></g><g fill="#00f" clip-path="url(#clip17)"><path d="M97 48a4 4 0 1 1-8 0 4 4 0 0 1 8 0z"/></g><g fill="none" stroke="#000" stroke-linecap="round" stroke-linejoin="round" clip-path="url(#clip18)"><path d="M97 48a4 4 0 1 1-8 0 4 4 0 0 1 8 0z"/></g><g fill="#3f0" clip-path="url(#clip19)"><path d="M248 188c0 2.21-1.79 4-4 4s-4-1.79-4-4 1.79-4 4-4 4 1.79 4 4z"/></g><g fill="none" stroke="#000" stroke-linecap="round" stroke-linejoin="round" clip-path="url(#clip20)"><path d="M248 188c0 2.21-1.79 4-4 4s-4-1.79-4-4 1.79-4 4-4 4 1.79 4 4z"/></g><g fill="#00f" clip-path="url(#clip21)"><path d="M32 116.37a4 4 0 1 1-8 0 4 4 0 0 1 8 0z"/></g><g fill="none" stroke="#000" stroke-linecap="round" stroke-linejoin="round" clip-path="url(#clip22)"><path d="M32 116.37a4 4 0 1 1-8 0 4 4 0 0 1 8 0z"/></g><g fill="#00f" clip-path="url(#clip23)"><path d="M97 116.37a4 4 0 1 1-8 0 4 4 0 0 1 8 0z"/></g><g fill="none" stroke="#000" stroke-linecap="round" stroke-linejoin="round" clip-path="url(#clip24)"><path d="M97 116.37a4 4 0 1 1-8 0 4 4 0 0 1 8 0z"/></g><g fill="#00f" clip-path="url(#clip25)"><path d="M162 116.37c0 2.21-1.79 4-4 4s-4-1.79-4-4 1.79-4 4-4 4 1.79 4 4z"/></g><g fill="none" stroke="#000" stroke-linecap="round" stroke-linejoin="round" clip-path="url(#clip26)"><path d="M162 116.37c0 2.21-1.79 4-4 4s-4-1.79-4-4 1.79-4 4-4 4 1.79 4 4z"/></g><g fill="red" clip-path="url(#clip27)"><path d="M227 116.37c0 2.21-1.79 4-4 4s-4-1.79-4-4 1.79-4 4-4 4 1.79 4 4z"/></g><g fill="none" stroke="#000" stroke-linecap="round" stroke-linejoin="round" clip-path="url(#clip28)"><path d="M227 116.37c0 2.21-1.79 4-4 4s-4-1.79-4-4 1.79-4 4-4 4 1.79 4 4z"/></g><g fill="red" clip-path="url(#clip29)"><path d="M292 116.37c0 2.21-1.79 4-4 4s-4-1.79-4-4 1.79-4 4-4 4 1.79 4 4z"/></g><g fill="none" stroke="#000" stroke-linecap="round" stroke-linejoin="round" clip-path="url(#clip30)"><path d="M292 116.37c0 2.21-1.79 4-4 4s-4-1.79-4-4 1.79-4 4-4 4 1.79 4 4z"/></g><g fill="red" clip-path="url(#clip31)"><path d="M292 188c0 2.21-1.79 4-4 4s-4-1.79-4-4 1.79-4 4-4 4 1.79 4 4z"/></g><g fill="none" stroke="#000" stroke-linecap="round" stroke-linejoin="round" clip-path="url(#clip32)"><path d="M292 188c0 2.21-1.79 4-4 4s-4-1.79-4-4 1.79-4 4-4 4 1.79 4 4z"/></g><g fill="none" stroke="#000" clip-path="url(#clip33)"><path d="M225 188c0 1.1-.9 2-2 2s-2-.9-2-2 .9-2 2-2 2 .9 2 2z"/></g><g clip-path="url(#clip34)" transform="matrix(.23 0 0 .23 53 40.212)"><g fill="#00f"><path d="M53.594-40.094q-2-1.5-4.797-1.5-2.703 0-5.047 2.399-2.344 2.398-3.453 6.695-.297.906-1.797 6.805-1.5 5.898-1.703 6.789-2.203 9-2.203 11.11 0 5 5.609 5 3.797 0 8-2.954 4.203-2.953 6.203-9.156.391-1.297 2.297-1.297 2.391 0 2.391 1.398 0 1.399-1.297 3.852t-3.594 5.156Q51.906-3.094 48-1.148 44.094.797 39.703.797 29.5.797 25.906-5.297 21.5.797 15.203.797q-4.703 0-8.055-2.445Q3.797-4.094 3.797-8q0-3.5 2.203-5.648 2.203-2.149 5-2.149 2.297 0 3.648 1.399Q16-13 16-11.203q0 2.11-1.453 4.156Q13.094-5 10.594-4.297q2 1.5 4.812 1.5 2.688 0 5.039-2.351 2.352-2.352 3.461-6.758l3.391-13.688q2.297-9.203 2.297-11 0-5-5.594-5-3.797 0-8 2.946-4.203 2.945-6.203 9.148-.39 1.297-2.297 1.297-2.406 0-2.406-1.399 0-1.398 1.304-3.851Q7.703-35.906 10-38.602q2.297-2.695 6.195-4.648 3.899-1.953 8.305-1.953 10.203 0 13.797 6.109Q42.703-45.203 49-45.203q4.703 0 8.055 2.453 3.351 2.453 3.351 6.344 0 3.5-2.203 5.656-2.203 2.156-5 2.156-2.297 0-3.648-1.406-1.352-1.406-1.352-3.203 0-2.094 1.445-4.149 1.446-2.054 3.946-2.742z"/></g></g><g clip-path="url(#clip35)" transform="matrix(.23 0 0 .23 130 177.21)"><g fill="#090"><path d="M57.703-37.703 48.297.094Q46.094 9 37.844 14.602q-8.25 5.601-17.344 5.601-6 0-9.703-2.398-3.703-2.399-3.703-6.305 0-3.203 2.156-5.398 2.156-2.196 5.047-2.196 1.906 0 3.406 1.094 1.5 1.094 1.5 3.5 0 4.703-4.797 6.703 2.297 1.391 6.094 1.391 5.5 0 10.352-5 4.851-5 6.851-13.797-4.297 3-9.609 3-2.688 0-5.039-.445-2.352-.446-5-1.696-2.649-1.25-4.25-4.054-1.602-2.805-1.602-6.805 0-3.5 1.352-7.852Q14.906-24.406 18.203-33q1.703-4.5 1.703-6.5 0-1-.304-1.5-.305-.5-.602-.547-.297-.047-.797-.047-.797 0-1.851.399-1.055.398-2.602 1.445-1.547 1.047-3.148 3.695Q9-33.406 7.906-29.5q-.406 1.297-2.312 1.297-2.39 0-2.39-1.391 0-1 1-3.351 1-2.352 2.796-5.203Q8.797-41 11.945-43.102q3.149-2.101 6.852-2.101 4.5 0 7.898 2.453 3.399 2.453 3.399 6.547 0 1.609-1.297 5Q22.906-16 22.906-10.094q0 7.297 6 7.297 3 0 6.797-2.406Q36-5.406 36.75-6q.75-.594 1.703-1.797Q39.406-9 39.594-10q.703-2.703 4.203-16.594L46.406-37q.391-1.5.696-2.398.304-.899 1.101-2.25Q49-43 50.352-43.703q1.351-.703 3.148-.703 2.203 0 3.453 1.304 1.25 1.305 1.25 3.102 0 .5-.5 2.297z"/></g></g><g clip-path="url(#clip36)" transform="matrix(.23 0 0 .23 261 205.9)"><g fill="red"><path d="M28-37.594q7.094-7.609 16.5-7.609 6.406 0 10.656 2.648 4.25 2.649 4.25 8.961 0 5.5-6.203 21.391-2 5-2 7.297 0 1 .297 1.5t.602.554q.304.055.804.055.891 0 1.891-.398 1-.399 2.555-1.453 1.554-1.055 3.101-3.704Q62-11 63.203-14.906q.391-1.297 2.297-1.297 2.406 0 2.406 1.406 0 1-1 3.352-1 2.351-2.804 5.195-1.805 2.844-4.954 4.945Q56 .797 52.297.797q-4.5 0-7.899-2.445Q41-4.094 41-8.203q0-1.703 1.406-5.094 6.297-16.609 6.297-22.406 0-5.891-5-5.891-5.297 0-10.297 3.891-2.203 1.797-4.156 4.453-1.953 2.656-2.047 3.344-.109.203-1.508 5.804Q24.297-18.5 24.094-18q-1.391 6-2.797 11.203-.391 1.5-.742 2.5-.352 1-1.102 2.352-.75 1.351-2.101 2.047Q16 .797 14.203.797 12 .797 10.75-.555 9.5-1.906 9.5-3.594q0-.312.797-4l3.609-14q.5-2.203 2.188-9 1.406-5.609 1.406-7.312 0-3.688-2.297-3.688-4.203 0-6.797 10-.703 2.797-.812 2.891-.5.5-2 .5-2.39 0-2.39-1.391 0-.812 1.1-4.062Q5.407-36.906 7-39.5q3.5-5.703 8.703-5.703 4.297 0 7.797 2t4.5 5.609z"/></g></g><g clip-path="url(#clip37)" transform="matrix(.23 0 0 .23 283.79 205.9)"><g fill="red"><path d="M23.703-25.102q0 3.196-2.305 5.5-2.304 2.305-5.5 2.305-3.195 0-5.5-2.305-2.304-2.304-2.304-5.5 0-3.195 2.304-5.5 2.305-2.304 5.5-2.304 3.196 0 5.5 2.304 2.305 2.305 2.305 5.5z"/></g></g><g clip-path="url(#clip38)" transform="matrix(.23 0 0 .23 294.96 205.9)"><g fill="red"><path d="M53.594-40.094q-2-1.5-4.797-1.5-2.703 0-5.047 2.399-2.344 2.398-3.453 6.695-.297.906-1.797 6.805-1.5 5.898-1.703 6.789-2.203 9-2.203 11.11 0 5 5.609 5 3.797 0 8-2.954 4.203-2.953 6.203-9.156.391-1.297 2.297-1.297 2.391 0 2.391 1.398 0 1.399-1.297 3.852t-3.594 5.156Q51.906-3.094 48-1.148 44.094.797 39.703.797 29.5.797 25.906-5.297 21.5.797 15.203.797q-4.703 0-8.055-2.445Q3.797-4.094 3.797-8q0-3.5 2.203-5.648 2.203-2.149 5-2.149 2.297 0 3.648 1.399Q16-13 16-11.203q0 2.11-1.453 4.156Q13.094-5 10.594-4.297q2 1.5 4.812 1.5 2.688 0 5.039-2.351 2.352-2.352 3.461-6.758l3.391-13.688q2.297-9.203 2.297-11 0-5-5.594-5-3.797 0-8 2.946-4.203 2.945-6.203 9.148-.39 1.297-2.297 1.297-2.406 0-2.406-1.399 0-1.398 1.304-3.851Q7.703-35.906 10-38.602q2.297-2.695 6.195-4.648 3.899-1.953 8.305-1.953 10.203 0 13.797 6.109Q42.703-45.203 49-45.203q4.703 0 8.055 2.453 3.351 2.453 3.351 6.344 0 3.5-2.203 5.656-2.203 2.156-5 2.156-2.297 0-3.648-1.406-1.352-1.406-1.352-3.203 0-2.094 1.445-4.149 1.446-2.054 3.946-2.742z"/></g></g></g></svg>