<?xml version="1.0" encoding="UTF-8"?>
<svg id="katman_1" data-name="katman 1" xmlns="http://www.w3.org/2000/svg" version="1.1" xmlns:xlink="http://www.w3.org/1999/xlink" viewBox="0 0 841.89 595.28">
  <defs>
    <style>
      .cls-1 {
        fill: #7F00FF;
      }

      .cls-1, .cls-2, .cls-3, .cls-4, .cls-5 {
        stroke-width: 0px;
      }

      .cls-2 {
        fill: none;
      }

      .cls-3 {
        fill:#7F00FF;
        fill-rule: evenodd;
      }

      .cls-6 {
        clip-path: url(#clippath);
      }

      .cls-4 {
        fill: #7F00FF;
      }

      .cls-5 {
        fill: #fff;
      }

      .cls-7 {
        mask: url(#mask);
      }
    </style>
    <mask id="mask" x="64.17" y="234.43" width="667.48" height="125.94" maskUnits="userSpaceOnUse">
      <g id="c">
        <path class="cls-5" d="M731.66,234.43H64.17v125.94h667.48v-125.94Z"/>
      </g>
    </mask>
    <clipPath id="clippath">
      <rect class="cls-2" x="740.05" y="253.32" width="37.78" height="37.78"/>
    </clipPath>
  </defs>
  <g class="cls-7">
    <g>
      <g>
        <path class="cls-4" d="M135.14,262.19l-.08-.05-.18-.06c.07.06.16.1.26.11Z"/>
        <path class="cls-4" d="M135.18,262.17s-.02,0-.03,0v.02s.02,0,.03-.01Z"/>
        <path class="cls-4" d="M136.23,270.72l.13-.08.05-.03.04-.05c-.08.04-.16.09-.23.16Z"/>
        <path class="cls-4" d="M135.36,262.37l-.13-.13-.09-.05c.05.09.13.15.22.18Z"/>
        <path class="cls-4" d="M102.78,345.11c-.1.05-.19.12-.26.21l.08-.05c.06-.05.13-.12.18-.16Z"/>
        <path class="cls-4" d="M121.68,341.23c0-.12-.06-.1-.04.33,0-.03.01-.07.02-.1,0-.08.01-.15.02-.23Z"/>
        <path class="cls-4" d="M119.73,345.11c-.1.05-.19.12-.26.21l.08-.05c.06-.05.13-.12.18-.16Z"/>
        <path class="cls-4" d="M89.41,346.01c-.08-.07-.17-.12-.28-.13.08.04.17.08.22.11l.06.02Z"/>
        <path class="cls-4" d="M86.39,343.02c-.01-.13-.05-.25-.11-.36.04.12.08.23.11.35h0Z"/>
      </g>
      <path class="cls-1" d="M106.57,289.53c-4.12,1.83-8.8,3.92-14.86,3.92-2.54,0-5.06-.37-7.5-1.08l4.19,44.76c.15,1.87.97,3.62,2.3,4.89,1.33,1.27,3.07,1.98,4.87,1.98,0,0,5.94.32,7.93.32,2.13,0,8.54-.32,8.54-.32,1.8,0,3.54-.71,4.87-1.98,1.33-1.27,2.15-3.02,2.3-4.89l4.49-49.46c-2.01-.71-4.03-1.19-6.31-1.19-3.95,0-7.13,1.41-10.8,3.05Z"/>
      <path class="cls-4" d="M71.22,270.48l.07.07.05.03s-.07-.07-.12-.1Z"/>
      <path class="cls-4" d="M143.07,266.32l-.63-3.31c-.57-2.97-1.85-5.78-4.78-6.85-.94-.34-2.01-.49-2.73-1.2s-.93-1.82-1.1-2.84c-.31-1.88-.6-3.76-.92-5.64-.27-1.61-.49-3.43-1.2-4.91-.93-1.99-2.85-3.15-4.76-3.92-.98-.38-1.98-.7-2.99-.96-4.77-1.31-9.79-1.79-14.7-2.07-5.9-.34-11.81-.24-17.69.3-4.38.41-8.99.91-13.15,2.49-1.52.58-3.09,1.27-4.24,2.49-1.42,1.5-1.88,3.82-.85,5.69.74,1.33,1.98,2.27,3.31,2.89,1.72.8,3.52,1.41,5.37,1.82,5.14,1.18,10.46,1.65,15.71,1.84,5.82.24,11.65.05,17.44-.59,1.43-.16,2.86-.36,4.29-.59,1.68-.27,2.76-2.55,2.26-4.15-.59-1.9-2.19-2.64-3.99-2.35-.27.04-.53.08-.79.12l-.19.03c-.61.08-1.22.16-1.83.22-1.26.14-2.52.26-3.79.35-2.84.21-5.68.3-8.52.3-2.79,0-5.59-.08-8.38-.27-1.27-.09-2.54-.2-3.81-.33-.58-.06-1.15-.13-1.72-.2l-.55-.07-.12-.02-.57-.09c-1.16-.18-2.32-.39-3.46-.64-.12-.03-.22-.09-.29-.19-.07-.1-.11-.22-.11-.34s.04-.24.11-.34c.07-.1.18-.16.29-.19h.02c.99-.22,1.99-.41,3-.57.33-.05.67-.11,1.01-.16h0c.63-.04,1.26-.16,1.88-.24,5.44-.59,10.91-.79,16.38-.6,2.65.08,5.31.24,7.95.52.57.06,1.13.13,1.7.2.22.03.43.06.65.09l.44.07c1.28.2,2.55.44,3.81.72,1.87.42,4.28.56,5.11,2.7.27.68.39,1.43.53,2.14l.19.91s0,.03.01.05c.44,2.14.88,4.28,1.33,6.42.03.16.03.32,0,.48-.03.16-.09.31-.18.44-.09.13-.2.24-.34.33s-.28.14-.43.16h-.01l-.27.04-.27.04c-.85.11-1.69.22-2.54.32-1.67.2-3.34.37-5.02.51-3.33.29-6.66.48-10.01.57-1.7.05-3.41.07-5.11.07-6.77,0-13.54-.42-20.27-1.23-.73-.09-1.46-.19-2.19-.28.56.08-.41-.06-.61-.09-.46-.07-.93-.14-1.39-.21-1.55-.24-3.1-.54-4.65-.8-1.88-.32-3.67-.16-5.37.8-1.39.79-2.52,2.01-3.23,3.48-.73,1.57-.95,3.29-1.28,4.98-.33,1.69-.84,3.51-.64,5.24.42,3.74,2.93,6.79,6.55,7.47,3.41.64,6.83,1.16,10.27,1.61,13.49,1.72,27.12,1.92,40.65.61,1.1-.11,2.2-.22,3.3-.35.34-.04.69,0,1.02.12.33.12.62.31.87.56.25.25.43.56.55.9.12.34.16.7.12,1.06l-.34,3.46c-.69,7-1.38,14-2.07,21-.72,7.35-1.45,14.7-2.17,22.05-.21,2.07-.41,4.14-.62,6.21-.2,2.04-.23,4.14-.6,6.15-.59,3.17-2.65,5.11-5.65,5.82-2.75.65-5.57.99-8.39,1.02-3.13.02-6.26-.13-9.39-.11-3.34.02-7.44-.3-10.02-2.89-2.27-2.27-2.58-5.83-2.89-8.91-.41-4.07-.82-8.15-1.22-12.22l-2.27-22.65-1.47-14.65c-.02-.24-.05-.48-.07-.73-.18-1.75-1.37-3.46-3.24-3.37-1.61.07-3.43,1.49-3.24,3.37l1.09,10.86,2.25,22.47c.64,6.38,1.28,12.77,1.92,19.15.12,1.22.24,2.45.37,3.67.71,6.68,5.61,10.29,11.69,11.3,3.55.59,7.19.72,10.79.78,4.62.08,9.28.26,13.83-.61,6.73-1.28,11.78-5.96,12.5-13.21.21-2.09.41-4.19.62-6.28.68-6.93,1.37-13.85,2.05-20.78l2.23-22.63,1.02-10.37c.05-.51.26-1,.6-1.38.34-.38.78-.64,1.27-.74,1.92-.39,3.76-1.06,5.13-2.58,2.18-2.43,2.61-5.59,1.84-8.78ZM70.67,268.56s-.02.25-.05.37c0-.18,0-.35.05-.37ZM70.86,270.06s.06.05.11.13c-.07-.07-.12-.12-.11-.13ZM71.04,270.32c.1.19.07.12,0,0ZM71.41,270.63h0s.02.02.02.03c-.01-.01-.02-.02-.03-.03ZM136.01,270.16c-.69.68-1.73,1-2.76,1.16-11.55,1.78-23.26,2.68-34.93,2.29-8.35-.3-16.62-1.26-24.89-2.48-.81-.12-1.69-.27-2.25-.89-1.05-1.17-.53-3.53-.26-4.95.25-1.3.73-3.03,2.21-3.21,2.32-.28,5,.73,7.29,1.09,2.76.44,5.53.79,8.3,1.05,11.86,1.12,23.91.95,35.72-.7,2.15-.3,4.3-.65,6.43-1.05,1.9-.35,4.01-1.02,5.16,1.03.79,1.4.89,3.26.77,4.84-.04.69-.32,1.33-.81,1.81Z"/>
      <path class="cls-3" d="M225.23,308.62c-.89,1.7-2.11,3.17-3.67,4.43-1.56,1.25-3.37,2.28-5.44,3.06-2.07.79-4.16,1.32-6.26,1.59-2.1.27-4.14.25-6.11-.07-1.98-.32-3.66-.97-5.04-1.96l1.56-16.16c1.43-.49,3.23-1,5.41-1.51,2.17-.52,4.41-.89,6.7-1.11,2.3-.22,4.47-.2,6.52.07,2.05.27,3.67.92,4.85,1.96.64.59,1.19,1.23,1.63,1.92.44.69.71,1.4.81,2.14.25,2.07-.07,3.95-.96,5.65ZM202.63,274.19c1.04-.64,2.28-1.21,3.74-1.7,1.46-.49,2.95-.84,4.48-1.03,1.53-.2,3.02-.22,4.48-.07,1.46.15,2.74.55,3.85,1.22,1.11.66,1.94,1.62,2.48,2.88.54,1.26.69,2.84.44,4.76-.2,1.53-.8,2.82-1.82,3.88-1.01,1.06-2.25,1.94-3.7,2.66-1.46.71-3,1.28-4.63,1.7-1.63.42-3.2.73-4.71.92-1.51.2-2.81.32-3.93.37-1.11.05-1.84.07-2.19.07l1.48-15.65ZM233.23,298.17c-.79-1.72-1.85-3.23-3.19-4.54-1.33-1.3-2.92-2.25-4.74-2.84.79-.64,1.57-1.65,2.33-3.03.76-1.38,1.42-2.88,1.96-4.5.54-1.62.91-3.26,1.11-4.91.2-1.65.12-3.06-.22-4.25-.84-2.95-2.16-5.26-3.96-6.94-1.8-1.67-3.9-2.83-6.3-3.47-2.4-.64-5.04-.77-7.93-.41s-5.84,1.09-8.85,2.18c0-.25.02-.5.07-.77.05-.27.07-.55.07-.85,0-.74-.37-1.38-1.11-1.92-.74-.54-1.59-.86-2.56-.96-.96-.1-1.9.11-2.82.63-.91.52-1.54,1.47-1.89,2.84-.4,4.43-.79,9.03-1.19,13.8-.4,4.77-.81,9.6-1.26,14.47-.44,4.87-.89,9.71-1.33,14.5-.44,4.8-.89,9.41-1.33,13.84.15,1.33.52,2.36,1.11,3.1.59.74,1.28,1.18,2.07,1.33.79.15,1.62.01,2.48-.41.86-.42,1.62-1.14,2.26-2.18,1.97,1.08,4.2,1.78,6.67,2.1,2.47.32,4.97.32,7.52,0,2.54-.32,5.05-.92,7.52-1.81,2.47-.88,4.72-1.99,6.74-3.32,2.02-1.33,3.73-2.84,5.11-4.54,1.38-1.7,2.3-3.53,2.74-5.5.44-2.02.57-4.04.37-6.05-.2-2.02-.69-3.89-1.48-5.61Z"/>
      <path class="cls-3" d="M305.5,337.14c-.27,1.62-.65,3.33-1.15,5.13-.49,1.8-1.07,3.43-1.74,4.91-.67,1.48-1.41,2.67-2.22,3.58-.82.91-1.69,1.29-2.63,1.15-.74-.1-1.21-.57-1.41-1.4-.2-.84-.2-1.87,0-3.1.2-1.23.58-2.62,1.15-4.17.57-1.55,1.26-3.09,2.07-4.61.82-1.53,1.74-2.99,2.78-4.39,1.04-1.4,2.12-2.57,3.26-3.51.25.3.36,1.03.33,2.21-.03,1.18-.17,2.58-.44,4.21ZM330.61,305.1c-.67-.74-1.48-1.16-2.45-1.25-.96-.1-1.94.44-2.93,1.62-.64,1.18-1.46,2.31-2.45,3.4-.99,1.08-2.01,2.07-3.07,2.95-1.06.88-2.07,1.65-3.04,2.29-.96.64-1.72,1.11-2.26,1.4-.2-1.57-.31-3.27-.33-5.09-.03-1.82.01-3.67.11-5.54.15-2.66.46-5.34.93-8.05.47-2.71,1.15-5.36,2.04-7.97,0-1.38-.32-2.5-.96-3.36-.64-.86-1.42-1.4-2.33-1.62-.91-.22-1.85-.1-2.81.37-.96.47-1.79,1.32-2.48,2.55-.59,1.63-1.27,3.45-2.04,5.46-.77,2.02-1.63,4.07-2.59,6.16-.96,2.09-2.04,4.12-3.22,6.09-1.19,1.97-2.48,3.72-3.89,5.24-1.41,1.53-2.94,2.72-4.59,3.58-1.66.86-3.44,1.24-5.37,1.14-.89-.25-1.53-.91-1.93-1.99-.4-1.08-.63-2.44-.7-4.06-.07-1.62,0-3.41.22-5.35.22-1.94.52-3.88.89-5.79.37-1.92.78-3.74,1.22-5.46.44-1.72.86-3.17,1.26-4.36.59-1.43.59-2.62,0-3.58-.59-.96-1.41-1.6-2.44-1.92-1.04-.32-2.13-.31-3.26.04-1.14.34-1.95,1.11-2.44,2.29-.84,2.02-1.61,4.28-2.3,6.79-.69,2.51-1.25,5.11-1.67,7.79-.42,2.68-.66,5.34-.7,7.97,0,.17,0,.33,0,.51-1.08,2.86-2.1,5.02-3.08,6.47-1.26,1.87-2.68,2.68-4.26,2.44-.69-.29-1.15-.98-1.37-2.07-.22-1.08-.3-2.41-.23-3.99.08-1.57.26-3.36.56-5.35.3-1.99.67-4.06,1.11-6.2.45-2.14.91-4.29,1.41-6.46.49-2.16.94-4.21,1.33-6.13-.05-1.72-.56-3.04-1.52-3.95-.96-.91-2.31-1.27-4.04-1.07-1.19.49-2.06,1.13-2.63,1.92-.57.79-1.03,1.8-1.37,3.03-.2.64-.49,1.92-.89,3.84-.4,1.92-.9,4.12-1.52,6.61-.62,2.49-1.35,5.08-2.19,7.79-.84,2.71-1.78,5.16-2.82,7.34-1.04,2.19-2.17,3.95-3.41,5.28-1.24,1.33-2.57,1.87-4,1.62-.79-.15-1.3-.96-1.52-2.44-.22-1.48-.26-3.3-.11-5.46.15-2.16.44-4.54.89-7.12.44-2.58.9-5.03,1.37-7.35.47-2.31.9-4.36,1.3-6.13.39-1.77.67-2.95.81-3.54,0-1.43-.32-2.57-.96-3.43-.64-.86-1.42-1.4-2.33-1.62-.91-.22-1.85-.1-2.82.37-.96.47-1.79,1.32-2.48,2.55-.25,1.33-.57,2.87-.96,4.61-.4,1.75-.78,3.54-1.15,5.39s-.72,3.65-1.04,5.43c-.32,1.77-.55,3.32-.7,4.65-.1,1.03-.21,2.3-.33,3.8-.12,1.5-.19,3.09-.19,4.76s.12,3.33.37,4.98c.25,1.65.69,3.16,1.33,4.54.64,1.38,1.54,2.51,2.71,3.4,1.16.89,2.63,1.38,4.41,1.48,1.83.1,3.42-.04,4.78-.41,1.36-.37,2.59-.95,3.7-1.74,1.11-.79,2.12-1.72,3.04-2.8.91-1.08,1.81-2.26,2.7-3.54.84,1.87,1.93,3.32,3.26,4.36,1.33,1.03,2.74,1.65,4.22,1.84s2.99-.01,4.52-.63c1.53-.61,2.91-1.66,4.15-3.14.81-.91,1.58-1.93,2.3-3.07.31.53.63,1.05,1,1.52,1.21,1.58,2.85,2.66,4.93,3.25,2.22.59,4.39.69,6.52.3,2.12-.39,4.15-1.11,6.07-2.14,1.93-1.03,3.72-2.28,5.37-3.73,1.65-1.45,3.1-2.96,4.33-4.54-.05,1.13-.07,2.2-.07,3.21s-.03,2.1-.07,3.28c-2.47,1.72-4.8,3.79-7,6.2-2.2,2.41-4.13,4.98-5.78,7.71-1.65,2.73-2.95,5.5-3.89,8.3-.94,2.81-1.4,5.43-1.37,7.86.02,2.44.6,4.56,1.74,6.38,1.14,1.82,2.99,3.13,5.56,3.91,2.67.84,5.01.86,7.04.07,2.02-.79,3.79-2.09,5.29-3.91,1.51-1.82,2.74-4.02,3.7-6.61.96-2.58,1.73-5.28,2.3-8.08.57-2.8.93-5.56,1.08-8.27.15-2.71.15-5.12,0-7.23,4.25-1.77,7.73-4.01,10.44-6.72,2.72-2.7,4.96-5.56,6.74-8.56.54-.74.73-1.62.56-2.66-.17-1.03-.59-1.92-1.26-2.66Z"/>
      <path class="cls-3" d="M424.05,300.37c.15-1.13.37-2.33.67-3.58s.67-2.47,1.11-3.65c.44-1.18.96-2.2,1.56-3.06.59-.86,1.22-1.48,1.89-1.85.67-.37,1.34-.33,2.04.11.74.44,1.2,1.38,1.37,2.8.17,1.43,0,2.95-.52,4.58-.52,1.62-1.44,3.15-2.78,4.58-1.33,1.43-3.14,2.36-5.41,2.8-.1-.69-.07-1.6.07-2.73ZM449.72,303.4c-.81-.24-1.59-.27-2.33-.07-.74.2-1.21.71-1.41,1.55-.4,1.57-1.03,3.19-1.89,4.83-.86,1.65-1.93,3.21-3.18,4.69-1.26,1.48-2.68,2.78-4.26,3.91-1.58,1.13-3.23,1.94-4.96,2.44-1.73.54-3.16.6-4.3.18-1.14-.42-2.04-1.13-2.7-2.14-.67-1.01-1.15-2.23-1.44-3.65-.3-1.43-.47-2.9-.52-4.43,2.81.2,5.32-.31,7.52-1.51,2.2-1.2,4.06-2.8,5.59-4.8,1.53-1.99,2.69-4.23,3.48-6.72.79-2.48,1.24-4.96,1.33-7.42.05-2.31-.3-4.27-1.04-5.87-.74-1.6-1.74-2.84-3-3.73-1.26-.89-2.7-1.4-4.33-1.55-1.63-.15-3.28.07-4.96.66-2.03.69-3.74,1.81-5.15,3.36-1.41,1.55-2.58,3.35-3.52,5.39-.94,2.04-1.68,4.24-2.22,6.61-.54,2.36-.94,4.69-1.19,6.98-.22,2.05-.34,4.02-.38,5.91-.11.24-.21.47-.32.73-.77,1.75-1.66,3.46-2.67,5.13-1.01,1.67-2.14,3.08-3.37,4.21-1.24,1.13-2.52,1.53-3.85,1.18-.79-.2-1.22-1.11-1.3-2.73-.07-1.62.01-3.64.26-6.05.25-2.41.53-5.02.85-7.83.32-2.8.48-5.49.48-8.05,0-2.21-.42-4.34-1.26-6.39-.84-2.04-1.99-3.74-3.44-5.09-1.46-1.35-3.15-2.25-5.07-2.69-1.93-.44-4-.15-6.22.88-2.22,1.03-3.99,2.49-5.3,4.36-1.31,1.87-2.51,3.84-3.59,5.91-.4-1.58-.98-3.04-1.74-4.39-.77-1.35-1.7-2.53-2.81-3.54-1.11-1.01-2.36-1.8-3.74-2.36-1.38-.56-2.84-.85-4.37-.85s-2.85.28-4.11.85c-1.26.57-2.41,1.29-3.45,2.18-1.04.89-1.97,1.88-2.81,2.99-.84,1.11-1.58,2.2-2.22,3.28-.1-1.28-.21-2.4-.33-3.36-.12-.96-.35-1.77-.67-2.43-.32-.66-.78-1.17-1.37-1.51-.59-.34-1.43-.52-2.52-.52-.54,0-1.09.11-1.63.33-.54.22-1.03.53-1.44.92-.42.4-.74.87-.96,1.44-.22.57-.28,1.22-.19,1.96.05.54.19,1.19.41,1.96.22.76.43,1.76.63,2.99.2,1.23.36,2.72.48,4.47.12,1.75.16,3.89.11,6.42-.05,2.53-.24,5.5-.56,8.89-.32,3.4-.83,7.33-1.52,11.81-.1,1.03.3,1.87,1.19,2.51.89.64,1.9,1.01,3.04,1.11,1.14.1,2.21-.1,3.22-.59,1.01-.49,1.59-1.35,1.74-2.58.15-2.31.43-4.77.85-7.38.42-2.61.94-5.19,1.56-7.75.62-2.56,1.32-4.99,2.11-7.31.79-2.31,1.67-4.35,2.63-6.13.96-1.77,1.96-3.19,3-4.24,1.04-1.06,2.12-1.59,3.26-1.59,1.38,0,2.46.63,3.22,1.88.76,1.26,1.31,2.87,1.63,4.83.32,1.97.47,4.12.44,6.46-.03,2.34-.12,4.59-.3,6.75-.17,2.17-.37,4.1-.59,5.79-.22,1.7-.38,2.87-.48,3.51,0,1.13.43,2.03,1.3,2.69.86.66,1.83,1.06,2.89,1.18,1.06.12,2.06-.07,3-.59.94-.52,1.48-1.39,1.63-2.62.49-3.54,1.17-7.1,2.04-10.67.86-3.57,1.85-6.77,2.96-9.6,1.11-2.83,2.34-5.14,3.7-6.94,1.36-1.8,2.8-2.69,4.33-2.69.79,0,1.39.54,1.81,1.62.42,1.08.63,2.56.63,4.43,0,1.38-.11,2.79-.33,4.24-.22,1.45-.48,2.95-.78,4.5-.3,1.55-.56,3.14-.78,4.76-.22,1.62-.33,3.32-.33,5.09,0,1.23.12,2.66.37,4.28.25,1.62.72,3.16,1.41,4.61.69,1.45,1.64,2.68,2.85,3.69,1.21,1.01,2.75,1.51,4.63,1.51,2.82,0,5.31-.6,7.48-1.81,2.17-1.21,4.04-2.78,5.59-4.72.08-.1.15-.21.23-.31.12.29.22.59.36.87,1.06,2.16,2.51,3.84,4.33,5.02,1.83,1.18,3.97,1.83,6.45,1.96,2.47.12,5.16-.33,8.08-1.37,2.17-.79,4.06-1.77,5.67-2.95,1.6-1.18,3.05-2.62,4.33-4.32s2.46-3.65,3.52-5.87c1.06-2.22,2.14-4.75,3.22-7.6.2-.79.01-1.49-.55-2.1-.57-.61-1.26-1.04-2.08-1.29Z"/>
      <path class="cls-3" d="M489.99,295.18c-.25,1.45-.58,3.05-1,4.8-.42,1.75-.95,3.56-1.59,5.43-.64,1.87-1.44,3.56-2.37,5.06-.94,1.5-2.01,2.69-3.22,3.58-1.21.89-2.6,1.25-4.19,1.11-.79-.1-1.4-.64-1.81-1.62-.42-.98-.64-2.24-.67-3.76-.02-1.52.11-3.2.41-5.02.3-1.82.75-3.6,1.37-5.35.62-1.75,1.37-3.36,2.26-4.83.89-1.48,1.91-2.62,3.08-3.43,1.16-.81,2.43-1.19,3.82-1.14,1.38.05,2.86.74,4.45,2.07-.1.64-.27,1.69-.52,3.14ZM516.32,300.83c-.76-.39-1.55-.48-2.37-.26-.81.22-1.4.97-1.74,2.25-.2,1.38-.64,3-1.33,4.87-.69,1.87-1.54,3.64-2.56,5.31-1.02,1.67-2.17,3.06-3.48,4.17-1.31,1.11-2.7,1.61-4.19,1.51-1.23-.1-2.1-.72-2.59-1.88-.5-1.16-.76-2.61-.78-4.36-.03-1.75.15-3.71.52-5.9.37-2.19.81-4.37,1.33-6.53.52-2.16,1.05-4.24,1.6-6.24.54-1.99.99-3.68,1.33-5.06.39-1.23.27-2.28-.37-3.14-.64-.86-1.44-1.48-2.41-1.84-.97-.37-1.94-.47-2.93-.3-.99.17-1.63.7-1.93,1.59-2.91-2.51-5.72-3.86-8.41-4.06-2.69-.2-5.17.39-7.44,1.77-2.27,1.38-4.28,3.37-6.04,5.98-1.75,2.61-3.17,5.45-4.26,8.53-1.09,3.08-1.77,6.21-2.04,9.41-.27,3.2-.06,6.11.63,8.75.69,2.63,1.91,4.79,3.67,6.46,1.75,1.67,4.14,2.51,7.15,2.51,1.33,0,2.62-.27,3.85-.81,1.23-.54,2.37-1.18,3.41-1.92,1.04-.74,1.95-1.51,2.74-2.33s1.41-1.49,1.85-2.03c.34,1.77.92,3.27,1.7,4.5s1.69,2.24,2.7,3.03c1.01.79,2.07,1.37,3.19,1.74,1.11.37,2.19.55,3.22.55,2.32,0,4.49-.79,6.52-2.36,2.02-1.57,3.84-3.51,5.44-5.79,1.6-2.29,2.93-4.7,3.96-7.23,1.04-2.53,1.73-4.79,2.07-6.75.34-.74.28-1.51-.18-2.32-.47-.81-1.09-1.41-1.86-1.81Z"/>
      <path class="cls-3" d="M649.7,341.59c-.42,1.67-1.07,3.09-1.96,4.24-.89,1.16-2,1.76-3.33,1.81-.84.05-1.48-.39-1.93-1.33-.45-.94-.75-2.14-.93-3.62-.17-1.48-.25-3.13-.22-4.95s.1-3.62.22-5.39c.13-1.77.27-3.42.45-4.95.17-1.53.31-2.71.41-3.54,1.68.2,3.08.92,4.19,2.18,1.11,1.25,1.96,2.74,2.56,4.47.59,1.72.94,3.58,1.04,5.57.1,1.99-.06,3.83-.48,5.5h0ZM622.88,341.59c-.42,1.67-1.07,3.09-1.96,4.24-.89,1.16-2,1.76-3.33,1.81-.84.05-1.48-.39-1.93-1.33-.45-.94-.76-2.14-.93-3.62-.17-1.48-.25-3.13-.22-4.95s.1-3.62.22-5.39c.12-1.77.27-3.42.45-4.95.17-1.53.31-2.71.41-3.54,1.68.2,3.08.92,4.19,2.18,1.11,1.25,1.96,2.74,2.56,4.47.59,1.72.94,3.58,1.04,5.57.1,1.99-.06,3.83-.48,5.5h0ZM595.36,299.66c-.05,1.18-.16,2.23-.34,3.14-.17.91-.41,1.49-.7,1.74-.55-.3-1.21-1.06-2-2.29-.79-1.23-1.41-2.62-1.85-4.17s-.58-3.07-.41-4.58c.17-1.5.95-2.67,2.33-3.51.54-.3,1.01-.18,1.41.33.39.52.72,1.27.97,2.25.24.99.42,2.12.52,3.4.1,1.28.12,2.51.08,3.69ZM588.8,314.39c-.77.81-1.62,1.51-2.56,2.1-.94.59-1.9,1.03-2.89,1.33-.99.3-1.88.37-2.67.22-2.22-.44-3.93-1.4-5.11-2.88-1.18-1.48-1.94-3.21-2.26-5.2-.32-1.99-.29-4.12.11-6.39.39-2.26,1.06-4.37,2-6.31.94-1.94,2.07-3.62,3.4-5.02,1.33-1.4,2.79-2.28,4.37-2.62-.6,2.51-.79,5.11-.6,7.79.2,2.68.84,5.2,1.93,7.57.69,1.43,1.52,2.73,2.48,3.91.97,1.18,2.14,2.19,3.52,3.03-.39.84-.98,1.66-1.74,2.47h0ZM670.77,300.4c.15-1.13.37-2.33.67-3.58.29-1.25.67-2.47,1.11-3.65.45-1.18.97-2.2,1.56-3.06s1.22-1.48,1.89-1.85,1.34-.33,2.04.11c.74.44,1.2,1.38,1.37,2.8.17,1.43,0,2.95-.52,4.58-.52,1.62-1.44,3.15-2.77,4.58-1.33,1.43-3.14,2.36-5.41,2.81-.1-.69-.07-1.6.08-2.73h0ZM700.63,300.4c.15-1.13.37-2.33.66-3.58.3-1.25.67-2.47,1.11-3.65.45-1.18.96-2.2,1.56-3.06.59-.86,1.22-1.48,1.89-1.85s1.34-.33,2.04.11c.74.44,1.2,1.38,1.37,2.8.18,1.43,0,2.95-.52,4.58-.52,1.62-1.44,3.15-2.78,4.58-1.33,1.43-3.14,2.36-5.41,2.81-.1-.69-.08-1.6.08-2.73h0ZM728.37,304.72c-.57-.61-1.26-1.04-2.07-1.29-.81-.25-1.59-.27-2.33-.07-.74.2-1.21.71-1.41,1.55-.39,1.58-1.02,3.19-1.89,4.83-.86,1.65-1.93,3.21-3.19,4.69-1.26,1.48-2.68,2.78-4.26,3.91-1.58,1.13-3.24,1.94-4.97,2.43-1.73.54-3.16.6-4.29.19-1.14-.42-2.04-1.13-2.7-2.14-.67-1.01-1.15-2.23-1.44-3.65-.3-1.43-.47-2.9-.52-4.43,2.82.2,5.32-.31,7.52-1.51,2.2-1.21,4.06-2.81,5.6-4.8,1.53-1.99,2.69-4.23,3.48-6.72s1.23-4.96,1.33-7.42c.05-2.31-.3-4.27-1.04-5.87-.74-1.6-1.74-2.84-3-3.73-1.26-.89-2.7-1.4-4.34-1.55-1.63-.15-3.28.07-4.96.66-2.02.69-3.74,1.81-5.15,3.36-1.41,1.55-2.58,3.35-3.52,5.39-.94,2.04-1.68,4.24-2.22,6.61-.55,2.36-.94,4.69-1.18,6.98-.24,2.22-.37,4.34-.4,6.38-.19.41-.39.81-.6,1.22-.86,1.65-1.92,3.21-3.18,4.69-1.26,1.48-2.68,2.78-4.26,3.91-1.58,1.13-3.24,1.94-4.96,2.43-1.73.54-3.16.6-4.3.19-1.14-.42-2.04-1.13-2.7-2.14-.67-1.01-1.15-2.23-1.44-3.65-.3-1.43-.47-2.9-.52-4.43,2.82.2,5.32-.31,7.52-1.51,2.2-1.21,4.06-2.81,5.59-4.8,1.53-1.99,2.69-4.23,3.48-6.72s1.23-4.96,1.33-7.42c.05-2.31-.3-4.27-1.04-5.87-.74-1.6-1.74-2.84-3-3.73-1.26-.89-2.7-1.4-4.33-1.55s-3.29.07-4.97.66c-2.02.69-3.74,1.81-5.15,3.36-1.41,1.55-2.58,3.35-3.52,5.39-.94,2.04-1.68,4.24-2.22,6.61-.54,2.36-.94,4.69-1.18,6.98-.14,1.29-.24,2.54-.3,3.77-.48.4-.94.81-1.44,1.21-1.7,1.38-3.49,2.62-5.37,3.73-1.88,1.11-3.83,2.02-5.85,2.73-2.03.71-4.1,1.14-6.23,1.29l4.6-49.01c.29-1.03.15-1.94-.45-2.73s-1.36-1.33-2.3-1.62c-.94-.3-1.94-.27-3,.07-1.06.35-1.94,1.13-2.63,2.36-.34,1.87-.7,4.43-1.07,7.68-.37,3.25-.74,6.79-1.11,10.63-.37,3.84-.74,7.8-1.11,11.88-.37,4.09-.69,7.9-.96,11.44-.01.16-.02.3-.03.46-.43.36-.85.73-1.3,1.09-1.7,1.38-3.49,2.62-5.37,3.73-1.88,1.11-3.83,2.02-5.85,2.73-2.03.71-4.1,1.14-6.23,1.29l4.6-49.01c.29-1.03.15-1.94-.45-2.73s-1.36-1.33-2.3-1.62c-.94-.3-1.94-.27-3,.07-1.06.35-1.94,1.13-2.63,2.36-.34,1.87-.7,4.43-1.07,7.68-.37,3.25-.74,6.79-1.11,10.63-.37,3.84-.74,7.8-1.11,11.88-.37,4.09-.69,7.9-.96,11.44,0,.07-.01.14-.02.21-.78.36-1.62.67-2.54.94-.94.27-2,.43-3.19.48.2-.89.36-1.87.48-2.95.12-1.08.22-2.21.3-3.4.07-1.18.1-2.36.07-3.54-.03-1.18-.09-2.26-.18-3.25-.25-2.11-.71-4.12-1.37-6.02-.67-1.89-1.57-3.48-2.7-4.76-1.14-1.28-2.56-2.14-4.26-2.58-1.7-.44-3.69-.3-5.97.44-3.36-.44-6.38-.13-9.08.92-2.69,1.06-5.03,2.6-7,4.61-1.98,2.02-3.59,4.39-4.85,7.12-1.26,2.73-2.1,5.54-2.52,8.41-.18,1.22-.26,2.43-.29,3.65-.76,1.56-1.6,2.92-2.53,4.07-1.31,1.62-2.67,2.95-4.07,3.99-1.41,1.03-2.8,1.82-4.19,2.36-1.39.54-2.62.91-3.7,1.11-1.28.25-2.52.27-3.71.07-1.18-.2-2.27-.76-3.26-1.7-.79-.69-1.4-1.8-1.82-3.32-.42-1.53-.66-3.26-.74-5.2-.08-1.94,0-3.97.22-6.09.22-2.12.6-4.12,1.15-6.02.55-1.89,1.23-3.59,2.08-5.09.84-1.5,1.83-2.57,2.96-3.21.64.1,1.04.48,1.19,1.14.15.66.18,1.45.11,2.36-.07.91-.18,1.85-.33,2.8-.15.96-.22,1.76-.22,2.4.25,1.33.73,2.36,1.44,3.1.71.74,1.52,1.17,2.41,1.29.89.12,1.76-.09,2.63-.63.86-.54,1.57-1.4,2.11-2.58.05.05.12.07.22.07l1.04-9.37c.29-1.28.1-2.41-.59-3.4-.69-.98-1.61-1.55-2.74-1.7-1.44-2.07-3.37-3.16-5.81-3.28-2.45-.12-4.95.68-7.52,2.4-1.58,1.13-2.97,2.69-4.19,4.69-1.21,1.99-2.2,4.21-2.96,6.64-.77,2.44-1.31,5.01-1.63,7.71-.32,2.71-.38,5.34-.18,7.9.2,2.56.65,4.97,1.37,7.23.71,2.26,1.71,4.16,3,5.68,1.09,1.33,2.32,2.3,3.71,2.92,1.38.62,2.83,1,4.33,1.14,1.51.15,3,.09,4.48-.18s2.89-.65,4.22-1.14c1.73-.64,3.51-1.45,5.34-2.44,1.83-.98,3.58-2.16,5.26-3.54.88-.72,1.73-1.52,2.56-2.36.37.93.79,1.82,1.3,2.66,1.33,2.21,3.13,4.01,5.41,5.39,2.27,1.38,5.06,2.04,8.37,1.99,3.56-.05,6.84-.95,9.85-2.69,3.01-1.75,5.48-4.32,7.41-7.71,2.88,0,5.72-.47,8.51-1.42-.03.3-.05.61-.07.9-.2,2.61-.3,4.38-.3,5.31-.05,1.62-.16,3.63-.33,6.01-.17,2.39-.28,4.9-.33,7.53-.05,2.63.05,5.29.29,7.97.25,2.68.77,5.12,1.56,7.31.79,2.19,1.91,4.05,3.37,5.57,1.46,1.52,3.37,2.44,5.74,2.73,2.51.34,4.69-.1,6.52-1.33,1.83-1.23,3.31-2.92,4.45-5.06,1.14-2.14,1.94-4.61,2.41-7.42.47-2.8.6-5.62.41-8.45s-.72-5.5-1.56-8.01c-.84-2.51-2-4.58-3.48-6.2.89-.24,1.95-.71,3.19-1.4,1.23-.69,2.5-1.46,3.82-2.33.32-.21.64-.43.96-.65-.12,1.74-.18,2.99-.18,3.72-.05,1.62-.16,3.63-.34,6.01-.17,2.39-.28,4.9-.33,7.53-.05,2.63.05,5.29.29,7.97.25,2.68.77,5.12,1.56,7.31.79,2.19,1.91,4.05,3.37,5.57,1.46,1.52,3.37,2.44,5.74,2.73,2.51.34,4.69-.1,6.52-1.33,1.83-1.23,3.31-2.92,4.45-5.06,1.14-2.14,1.94-4.61,2.41-7.42.47-2.8.6-5.62.41-8.45s-.72-5.5-1.56-8.01c-.84-2.51-2-4.58-3.48-6.2.89-.24,1.95-.71,3.19-1.4,1.23-.69,2.5-1.46,3.82-2.33.68-.45,1.36-.91,2.03-1.38.26,2.41.8,4.52,1.68,6.29,1.06,2.17,2.51,3.84,4.33,5.02,1.83,1.18,3.98,1.83,6.44,1.96,2.47.12,5.16-.33,8.08-1.37,2.17-.79,4.06-1.77,5.67-2.95,1.6-1.18,3.05-2.62,4.33-4.32.08-.1.15-.21.22-.3.23.69.48,1.35.78,1.96,1.06,2.17,2.51,3.84,4.34,5.02,1.83,1.18,3.98,1.83,6.44,1.96,2.47.12,5.16-.33,8.08-1.37,2.17-.79,4.06-1.77,5.67-2.95,1.6-1.18,3.05-2.62,4.33-4.32,1.28-1.7,2.46-3.65,3.52-5.87,1.06-2.21,2.14-4.75,3.22-7.6.2-.79,0-1.49-.56-2.1h0Z"/>
    </g>
  </g>
  <g class="cls-6">
    <path class="cls-3" d="M757.17,258.06c-8,0-14.49,6.49-14.49,14.49s6.49,14.49,14.49,14.49,14.49-6.49,14.49-14.49-6.49-14.49-14.49-14.49ZM740.05,272.54c0-9.46,7.67-17.12,17.12-17.12s17.12,7.66,17.12,17.12-7.67,17.12-17.12,17.12-17.12-7.67-17.12-17.12ZM751.9,265.96c0-.73.59-1.32,1.32-1.32h5.27c1.4,0,2.74.55,3.72,1.54s1.54,2.33,1.54,3.72-.56,2.74-1.54,3.72c-.39.39-.84.72-1.33.97l2.64,3.78c.42.6.27,1.42-.33,1.83-.6.42-1.41.27-1.83-.33l-3.28-4.71h-3.53v3.95c0,.73-.59,1.32-1.32,1.32s-1.32-.59-1.32-1.32v-13.17ZM758.75,272.53c-.06,0-.12,0-.18.01-.03,0-.05,0-.08,0h-3.95v-5.27h3.95c.7,0,1.37.28,1.86.77.5.49.77,1.16.77,1.86s-.28,1.37-.77,1.86c-.43.43-.99.7-1.6.76h0Z"/>
  </g>
</svg>